<?xml version="1.0" encoding="utf-8"?>
<!-- Generator: Adobe Illustrator 23.0.2, SVG Export Plug-In . SVG Version: 6.00 Build 0)  -->
<svg version="1.1" xmlns="http://www.w3.org/2000/svg" xmlns:xlink="http://www.w3.org/1999/xlink" x="0px" y="0px"
	 viewBox="0 0 884.42 450.09" style="enable-background:new 0 0 884.42 450.09;" xml:space="preserve">
<style type="text/css">
	.st0{fill-rule:evenodd;clip-rule:evenodd;fill:#FFFFFF;}
	.st1{fill-rule:evenodd;clip-rule:evenodd;fill:#002561;}
	.st2{display:none;}
</style>
<g id="Layer_3_1_">
</g>
<g id="Layer_2">
	<polygon class="st0" points="201.98,249.52 174.62,240.75 138.45,234.42 153.86,225.04 206.53,219.6 239.37,199.61 286.2,174.57 
		290.26,184.16 293.67,199.93 299.53,214.08 305.54,222.37 316.11,233.1 325.86,239.6 336.11,244.48 350.41,249.52 367.16,250.66 
		380.82,251.79 391.55,249.03 408.88,243.83 421.95,238.3 428.94,232.94 445.03,216.84 459.5,188.55 463.57,152.13 474.62,152.13 
		526.16,173.43 529.09,180.93 497.71,205.13 424.06,272.44 369.76,285.94 	"/>
</g>
<g id="Layer_1">
	<g id="Layer_3">
		<path d="M117.76,368.84H34.14h-1.42c-3.91,0-7.09,3.17-7.09,7.09v1.42v41.1c0,3.91,3.17,7.09,7.09,7.09s7.09-3.17,7.09-7.09
			v-12.76h77.95c10.18,0,18.43-8.25,18.43-18.43S127.94,368.84,117.76,368.84z M117.76,392.23H39.81v-9.92h77.95
			c2.74,0,4.96,2.22,4.96,4.96S120.5,392.23,117.76,392.23z"/>
		<path d="M375.71,368.84c0,0-91.37,0-93.83,0v0.01c-3.78,0.15-6.8,3.25-6.8,7.07s3.02,6.92,6.8,7.07V383c3.91,0,93.83,0,93.83,0
			c3.91,0,7.09-3.17,7.09-7.09S379.63,368.84,375.71,368.84z"/>
		<path d="M375.71,411.36h-72.44h-11.2l0,0c-1.6-0.01-2.9-1.31-2.9-2.91c0-0.22,0.03-0.44,0.08-0.65v-3.53c21.84,0,83.91,0,83.91,0
			v-0.01c3.78-0.15,6.8-3.25,6.8-7.07s-3.02-6.92-6.8-7.07v-0.01c0,0-88.89,0-91.28,0v0.01c-3.78,0.15-6.8,3.25-6.8,7.07
			c0,0.17,0.01,0.33,0.03,0.5c-0.01,0-0.02,0-0.03,0v13.67l0,0l0,0v1.2c0.01,0,0.04,0,0.06,0c0.61,7.26,6.66,12.97,14.03,12.97
			h86.53c3.91,0,7.09-3.17,7.09-7.09C382.8,414.53,379.63,411.36,375.71,411.36z"/>
		<path d="M257.64,413.14l-11.8-7.77c8.57-1.58,15.07-9.08,15.07-18.1c0-10.18-8.25-18.43-18.43-18.43h-83.62h-1.42
			c-0.01,0-0.02,0-0.02,0c-3.9,0.01-7.06,3.02-7.06,6.73c0,0.06,0.01,0.11,0.01,0.17s-0.01,0.12-0.01,0.18l0.02,0.02
			c0.2,3.44,3.11,6.19,6.75,6.34l0.02,0.02h0.3h0.08h4.01h80.95c2.74,0,4.96,2.22,4.96,4.96s-2.22,4.96-4.96,4.96h-63.78h-4.82
			h-9.36c-7.83,0-14.17,6.35-14.17,14.17v10.04v2.01c0,3.91,3.17,7.09,7.09,7.09s7.09-3.17,7.09-7.09v-12.76h14.17h33.33
			c0,0,12.52,2.94,18.75,5.98c5.78,2.82,17.88,11.4,19.6,12.63c0.06,0.04,0.11,0.08,0.17,0.12c0.03,0.02,0.04,0.03,0.04,0.03
			c0.01,0,0.01,0,0.02,0.01c1.04,0.68,2.29,1.08,3.62,1.08c0.86,0,1.65-0.14,2.37-0.4c1.21-0.31,2.31-1,3.06-2.26
			c0.04-0.07,0.07-0.13,0.11-0.2c0.7-1.07,1.09-2.37,1.12-3.8C260.96,416.43,259.62,414.3,257.64,413.14z"/>
		<path d="M498.59,411.37v-0.01h-73.28c-7.83,0-14.17-6.35-14.17-14.17c0-7.83,6.35-14.17,14.17-14.17h73.28V383
			c3.81-0.12,6.86-3.24,6.86-7.08s-3.05-6.96-6.86-7.08v-0.01h-73.28c-15.66,0-28.35,12.69-28.35,28.35l0,0
			c0,15.66,12.69,28.35,28.35,28.35h73.28v-0.01c3.81-0.12,6.86-3.24,6.86-7.08C505.46,414.61,502.4,411.49,498.59,411.37z"/>
		<path d="M839.18,368.84h-6.09h-27.5h-6.09c-15.66,0-28.35,12.69-28.35,28.35l0,0c0,15.66,12.69,28.35,28.35,28.35h6.09h27.5h6.09
			c15.66,0,28.35-12.69,28.35-28.35l0,0C867.52,381.53,854.83,368.84,839.18,368.84z M839.18,411.93h-6.09h-27.5h-6.09
			c-7.83,0-14.74-6.91-14.74-14.74s6.91-14.74,14.74-14.74h6.09h27.5h6.09c7.83,0,14.74,6.91,14.74,14.74
			C853.92,405.01,847.01,411.93,839.18,411.93z"/>
		<path d="M533.02,375.64c-0.15-3.78-3.25-6.8-7.07-6.8s-6.92,3.02-7.07,6.8h-0.01v43.09h0.01c0.15,3.78,3.25,6.8,7.07,6.8
			s6.92-3.02,7.07-6.8h0.01v-43.09H533.02z"/>
		<path d="M634.66,390.11L634.66,390.11L634.66,390.11c-0.1,0-0.19-0.01-0.28-0.01v0.01l-15.82-0.01h-43.09l-10.54,0.01v-0.01
			c-1.96,0-3.54-1.59-3.54-3.54s1.59-3.54,3.54-3.54V383l34.44,0.01h43.09V383c3.78-0.15,6.8-3.25,6.8-7.07s-3.02-6.92-6.8-7.07
			v-0.01h-43.09l-34.44,0.01v-0.01c-0.1,0-0.19,0.01-0.28,0.01l0,0l0,0c-9.65,0.15-17.43,8.01-17.43,17.7s7.78,17.55,17.43,17.7l0,0
			l0,0c0.1,0,0.19,0.01,0.28,0.01v-0.01l10.54,0.01h43.09l15.82-0.01v0.01h0.28c1.96,0,3.54,1.59,3.54,3.54s-1.59,3.54-3.54,3.54
			h-0.28v0.01l-34.44-0.01h-43.09v0.01c-3.78,0.15-6.8,3.25-6.8,7.07s3.02,6.92,6.8,7.07v0.01h43.09l34.44-0.01v0.01
			c9.78,0,17.72-7.93,17.72-17.72C652.09,398.13,644.31,390.27,634.66,390.11z"/>
		<path d="M755.16,413.72l-36.03-41.53l-0.01,0.01c-1.85-2.05-4.52-3.35-7.5-3.35c-3.06,0-5.79,1.36-7.64,3.51l-0.01-0.01
			L668,413.72c-2.57,2.95-2.25,7.43,0.7,10s7.43,2.25,10-0.7l29.3-34.53c0.01,0,0.01,0,0.02,0.01c0.9-0.96,2.18-1.57,3.6-1.57
			c1.72,0,3.23,0.88,4.12,2.21l28.72,33.89c2.57,2.95,7.04,3.27,10,0.7l0,0C757.41,421.15,757.73,416.67,755.16,413.72z"/>
		<g>
			<path d="M720.5,355.22c2.69-0.08,4.56-3.3,5.19-4.11c0.94-1.21,2.23-2.7,3.17-3.38c0.76-0.54,2.7-0.93,3.74-0.67
				c3.29,0.83,4.62,3.05,4.53,5.95c-0.07,2.15-1.79,6.28-4.75,9.22c-2.63,2.62-6.5,4.16-10.54,4.4c-3.09,0.18-7.74-0.44-11.28-3.45
				c-1.54-1.31-3.96-5.44-5.23-6.34c-0.75-0.53-2.02-2.02-3.81-2.02c-2.76,0-5.21,5.14-6.35,6.2c-1.4,1.3-4.44,1.99-5.9,0.75
				c-1.34-1.14-2.84-2.54-3.14-5.01c-0.35-2.92,2.38-8.25,5.78-10.1c3.12-1.69,6.41-2.9,10.29-2.9c2.36,0,7.12,0.12,10.67,4.33
				C715.27,350.95,718.11,355.29,720.5,355.22z"/>
		</g>
	</g>
	<g id="Layer_5">
		<path d="M514.61,283.8h-5.48h-36.08h-5.48c-14.09,0-25.51,11.42-25.51,25.51l0,0c0,14.09,11.42,25.51,25.51,25.51h5.48h36.08h5.48
			c14.09,0,25.51-11.42,25.51-25.51l0,0C540.12,295.22,528.7,283.8,514.61,283.8z M514.61,322.64h-5.49h-36.08h-5.48
			c-7.04,0-13.32-6.28-13.32-13.32S460.52,296,467.56,296h5.48h36.08h5.49c7.04,0,13.32,6.28,13.32,13.32
			C527.93,316.36,521.66,322.64,514.61,322.64z"/>
		<path d="M859.76,324.17l-32.47-37.43l-0.01,0.01c-1.67-1.85-4.07-3.02-6.76-3.02c-2.75,0-5.22,1.23-6.89,3.16h-0.01l-32.42,37.29
			c-2.31,2.66-2.03,6.7,0.63,9.01c2.66,2.31,6.7,2.03,9.01-0.63l26.4-31.12c0.01,0,0.01,0,0.02,0.01c0.82-0.87,1.96-1.41,3.25-1.41
			c1.55,0,2.91,0.79,3.72,1.99l25.88,30.54c2.31,2.66,6.35,2.94,9.01,0.63l0,0C861.79,330.87,862.08,326.83,859.76,324.17z"/>
		<path d="M662.85,290.26c-0.1-2.65-3.13-4.76-5.8-4.76s-5.7,2.12-5.8,4.76h-0.01v39.8h0.01c0.1,2.65,3.13,4.76,5.8,4.76
			s5.7-2.12,5.8-4.76h0.01v-39.8H662.85z"/>
		<path d="M501.7,271.19c2.35-1.21,3.35-4.08,2.22-6.5s-3.96-3.5-6.41-2.47v-0.01l-17.06,7.95v0.01c-2.35,1.21-3.35,4.08-2.22,6.5
			s3.96,3.5,6.41,2.47v0.01L501.7,271.19L501.7,271.19z"/>
		<path d="M637.39,283.24v-0.01h-82.57v0.01c-2.66,0.11-4.78,2.98-4.78,5.81s2.12,5.98,4.78,6.09v0.01h36.03v34.63h0.01
			c0.11,2.8,2.57,5.04,5.25,5.04s5.71-2.24,5.82-5.04h0.01v-34.63h35.46v-0.01c2.66-0.11,4.78-3.26,4.78-6.09
			C642.17,286.22,640.05,283.36,637.39,283.24z"/>
		<path d="M763.15,322.08v-0.01H697.2c-7.04,0-12.76-5.71-12.76-12.76c0-7.04,5.71-12.76,12.76-12.76h65.95v-0.01
			c3.43-0.11,6.18-2.91,6.18-6.37s-2.75-6.26-6.18-6.37v-0.01H697.2c-14.09,0-25.51,11.42-25.51,25.51l0,0
			c0,14.09,11.42,25.51,25.51,25.51h65.95v-0.01c3.43-0.11,6.18-2.91,6.18-6.37C769.32,324.99,766.58,322.19,763.15,322.08z"/>
	</g>
	<g id="Layer_6">
		<path class="st1" d="M373.02,11.94c0,0-39.9,1.44-76.01,16.63c-36.74,15.45-69.71,44.65-69.71,44.65s-13.13,12.71-28.74,28.18
			c-8.7,8.62-17.86,18.41-26.69,26.58c-15.06,13.93-29.01,23.33-29.01,23.33s-18.13,10.35-36.61,15.8
			c-19.19,5.66-38.75,6.45-38.75,6.45s22.82,8.19,49.6,7.3c27.46-0.92,58.89-10.93,58.89-10.93s22.75-8.96,44.15-19.05
			c22.38-10.55,43.46-22.26,43.46-22.26s35.93-21.02,68.3-33c26.52-9.82,50.64-11.03,50.64-11.03s29.32-3.64,60.54,5.77
			c30.51,9.2,62.94,31.46,62.94,31.46s9.86,6.15,19.78,13.96c12.3,9.69,25.17,21.45,25.17,21.45s-12.82-17.53-30.19-34.65
			c-13.77-13.57-32.91-27.55-32.91-27.55s-22.14-14.45-44.73-22.93c-20.17-7.58-41.07-9.3-41.07-9.3s-26.36-3.8-52.99,0.08
			c-26.26,3.83-52.79,15.35-52.79,15.35s-17.26,6.75-35.73,16.41C239.28,105.76,216.39,120,216.39,120s13.4-19.74,28.92-36.94
			c13.64-15.12,29.64-27.97,29.64-27.97s24.59-17.95,51.57-29.82C347.93,15.83,373.02,11.94,373.02,11.94z"/>
		<path class="st1" d="M64.77,213.5c0,0,35.37,8.25,70,4.78c33.21-3.33,65.74-18.4,65.74-18.4s23.62-14.35,45.11-28.22
			c17.91-11.57,34.34-23.08,34.34-23.08s33.43-20.43,64.43-30.12c26.8-8.37,51.78-6.19,51.78-6.19s26.24,0.37,56.51,9.78
			c33.15,10.3,70.6,29.72,70.6,29.72s35.12,19.37,60.66,37.42c14.59,10.31,26.05,23.86,26.05,23.86s-27.03-45.13-45.44-80.62
			c-11.93-23-18.12-41.95-18.12-41.95s22.13,21.25,43.23,40.22c19.22,17.27,37.58,32.42,37.58,32.42s21.77,17.28,43.14,30.68
			c20.61,12.92,40.84,21.98,40.84,21.98s4.34,6.66-3.18,6.81c0,0-33.36-14.48-63.82-35.05c-31.04-20.96-59.21-48.03-59.21-48.03
			s2.33,15.14,12.25,33.95c15.07,28.57,39.96,65.02,39.96,65.02s-24.45-14.15-49.95-27.46c-25.79-13.47-52.65-26.11-52.65-26.11
			s-11.14,2.96-24.29,14.49c-18.92,16.59-41.99,43.62-41.99,43.62s-24.38,25.88-47.81,40.72C398.86,297.46,378,300.22,378,300.22
			s-31.52,2.8-62.35-3.34c-29.52-5.88-58.41-20.72-58.41-20.72S222.46,259.5,198,249.02c-12.76-5.47-23.38-8.27-23.38-8.27
			s11.2-1.34,31.13,2.6c23.37,4.63,56.03,14.65,56.03,14.65s35.25,12.21,68.56,16.04c29.83,3.42,58.09-1.51,58.09-1.51
			s24.52-5.8,47.13-18.69c19.35-11.03,37.3-29.43,37.3-29.43s14.3-16.36,27.94-27.62c12.41-10.25,24.27-15.51,24.27-15.51
			s-5.23-5.34-18.56-11.26c-16.52-7.33-41.82-15.53-41.82-15.53s1.91,19.42-2.68,35.29c-4.93,17.01-16.38,30.54-16.38,30.54
			s-10.15,12.04-24.95,20.31c-16.02,8.95-36.79,14.19-36.79,14.19s-22.21,2.29-41.23-2.56c-15.31-3.9-28.23-15.15-28.23-15.15
			s-12.15-11.94-19.12-26.24c-6.64-13.6-8.12-29.6-8.12-29.6s-27.38,17.96-48.93,30.31c-13.99,8.02-25.52,12.36-25.52,12.36
			s-18.62,7.49-40.17,10.18c-18.09,2.26-39.73-0.2-39.73-0.2s-24.29-4.56-42.52-10.03C74.73,219.21,64.77,213.5,64.77,213.5z"/>
		<path class="st0" d="M343.51,150.4c0,0-10.72,2.92-22.41,9.07c-13.98,7.36-29.35,18.17-29.35,18.17s0.47,5.01,1.32,9.64
			c0.73,3.95,1.86,7.61,1.86,7.61l6.81-3.18l0.91,0.91l-7.72,4.09c0,0,2.36,9.13,6.82,16.17c4.15,6.55,10.43,11.07,10.43,11.07
			l12.71-9.99l1.82,1.36l-11.8,10.44l4.54,4.09c0,0,3.55-3.36,6.42-5.7c1.94-1.59,3.57-2.47,3.57-2.47l0.91,1.36l-8.17,8.17
			c0,0,0.16,0.78,1.31,1.61c1.34,0.97,3.69,2.02,3.69,2.02l9.53-9.08c0,0,1.39-1.3,2.72-0.45c1.34,0.85,0,1.82,0,1.82l-9.53,9.08
			l3.63,1.82l7.26-7.26c0,0,1.44-0.05,1.36,1.36l-5.9,6.81c0,0,3.66,2.28,8.07,3.75c5.08,1.69,11,2.61,11,2.61l6.81-10.44
			c0,0,1.37-2.1,2.72-0.45s0,1.82,0,1.82s-3.08,3.51-4.79,6.27c-1.11,1.79-1.11,3.26-1.11,3.26l4.09,0.45l6.81-8.63
			c0,0,1.86-3.33,3.63-2.27c1.77,1.06-0.91,3.63-0.91,3.63l-5.9,8.17l27.24-0.91l0.91-10.9c0,0-0.18-2.28,1.36-2.27
			c1.54,0.02,0.69,0.36,0.91,2.27s-0.45,9.53-0.45,9.53l4.09-0.91l0.45-9.53c0,0,1.28-3.08,1.82,0.45v8.17c0,0,12.79-4.71,22.2-10.3
			c7.05-4.19,11.4-9.67,11.4-9.67l-10.44-5.45c0,0-1.79-2.41,0.91-2.27l11.8,4.99l1.82-3.18l-9.99-4.54c0,0-3.33-1.47-0.91-2.72
			c0,0,1.22-0.89,3.18,0.45l9.53,3.63c0,0,3.13-4.01,5.88-9.15c2.17-4.04,4.1-9.46,4.1-9.46s-4.43-0.16-8.15-1.45
			c-2.69-0.93-5.02-3.09-5.02-3.09s1.04-4.43,2.72-2.27c0,0,1.19,1.76,3.83,2.64c2.81,0.94,7.07,0.99,7.07,0.99l1.36-4.99
			l-13.62-1.36v-2.27c0,0,4.52-0.02,8.44,0.36c2.99,0.29,5.64,1,5.64,1s1.93-4.69,2.9-8.65c0.85-3.5,0.74-6.33,0.74-6.33
			l-13.17-2.27c0,0-1.36-2.01,1.82-1.82l11.8,1.36l0.91-4.54c0,0-6.74,0.21-11.44-0.6c-2.52-0.43-4.45-2.13-4.45-2.13
			s-0.25-2.72,3.18-0.91l13.17,0.91l-1.36-7.26c0,0-14.85-4.9-28.28-8.11c-11.09-2.64-21.21-3.7-21.21-3.7s11.95,9.22,16.76,20.41
			c4.23,9.84,1.4,21.81,1.4,21.81s-3.45,10-10.42,17.19c-7.74,7.98-19.09,13.23-19.09,13.23s-12.43,4.63-23.96,4.27
			c-10.69-0.33-20.53-5.64-20.53-5.64s-8.41-3.46-13.58-10.47c-5.04-6.84-6.85-17.23-6.85-17.23S332.56,161.52,343.51,150.4z"/>
		<path class="st0" d="M358.49,163.56c0,0,18.48-5.53,26.78,2.72c8.31,8.26,2.72,14.98,2.72,14.98s-9.82,10.46-22.7,10.44
			c-13.84-0.02-17.25-9.99-17.25-9.99S344,171.39,358.49,163.56z"/>
		<path class="st0" d="M397.08,184.9c0,0,11.27-2.91,11.8,7.72c0,0-1.77,8.1-8.63,9.08c0,0-10.23,0.23-9.99-9.08
			C390.51,183.3,397.08,184.9,397.08,184.9z"/>
	</g>
	<g id="guides" class="st2">
	</g>
	<g id="guides2" class="st2">
	</g>
</g>
</svg>
